<svg width="89" height="50" viewBox="0 0 89 50" fill="none" xmlns="http://www.w3.org/2000/svg">
<path d="M2.128 47C1.92267 47 1.75 46.93 1.61 46.79C1.47 46.65 1.4 46.4773 1.4 46.272V36.794C1.4 36.5793 1.47 36.4067 1.61 36.276C1.75 36.136 1.92267 36.066 2.128 36.066H4.662C5.46467 36.066 6.19267 36.2013 6.846 36.472C7.50867 36.7333 8.08267 37.1113 8.568 37.606C9.05333 38.0913 9.42667 38.6653 9.688 39.328C9.94933 39.9907 10.08 40.7233 10.08 41.526C10.08 42.3287 9.94933 43.066 9.688 43.738C9.42667 44.4007 9.05333 44.9793 8.568 45.474C8.08267 45.9593 7.50867 46.3373 6.846 46.608C6.19267 46.8693 5.46467 47 4.662 47H2.128ZM2.856 45.712H4.662C5.446 45.712 6.13667 45.5347 6.734 45.18C7.34067 44.816 7.81667 44.3213 8.162 43.696C8.50733 43.0613 8.68 42.338 8.68 41.526C8.68 40.7047 8.50733 39.9813 8.162 39.356C7.81667 38.7307 7.34067 38.2407 6.734 37.886C6.13667 37.5313 5.446 37.354 4.662 37.354H2.856V45.712ZM15.8228 47.056C15.0482 47.056 14.3575 46.8927 13.7508 46.566C13.1535 46.23 12.6822 45.7727 12.3368 45.194C12.0008 44.606 11.8328 43.934 11.8328 43.178C11.8328 42.4127 11.9915 41.7407 12.3088 41.162C12.6355 40.574 13.0835 40.1167 13.6528 39.79C14.2222 39.454 14.8755 39.286 15.6128 39.286C16.3408 39.286 16.9662 39.4493 17.4888 39.776C18.0115 40.0933 18.4082 40.5367 18.6788 41.106C18.9588 41.666 19.0988 42.3147 19.0988 43.052C19.0988 43.2293 19.0382 43.3787 18.9168 43.5C18.7955 43.612 18.6415 43.668 18.4548 43.668H12.8128V42.548H18.4128L17.8388 42.94C17.8295 42.4733 17.7362 42.058 17.5588 41.694C17.3815 41.3207 17.1295 41.0267 16.8028 40.812C16.4762 40.5973 16.0795 40.49 15.6128 40.49C15.0808 40.49 14.6235 40.6067 14.2408 40.84C13.8675 41.0733 13.5828 41.3953 13.3868 41.806C13.1908 42.2073 13.0928 42.6647 13.0928 43.178C13.0928 43.6913 13.2095 44.1487 13.4428 44.55C13.6762 44.9513 13.9982 45.2687 14.4088 45.502C14.8195 45.7353 15.2908 45.852 15.8228 45.852C16.1122 45.852 16.4062 45.8007 16.7048 45.698C17.0128 45.586 17.2602 45.46 17.4468 45.32C17.5868 45.2173 17.7362 45.166 17.8948 45.166C18.0628 45.1567 18.2075 45.2033 18.3288 45.306C18.4875 45.446 18.5715 45.6 18.5808 45.768C18.5902 45.936 18.5155 46.0807 18.3568 46.202C18.0395 46.454 17.6428 46.6593 17.1668 46.818C16.7002 46.9767 16.2522 47.056 15.8228 47.056ZM23.8387 47.056C23.1574 47.056 22.5461 46.888 22.0047 46.552C21.4634 46.2067 21.0341 45.7447 20.7167 45.166C20.4087 44.578 20.2547 43.9153 20.2547 43.178C20.2547 42.4407 20.4227 41.778 20.7587 41.19C21.1041 40.602 21.5661 40.14 22.1447 39.804C22.7327 39.4587 23.3907 39.286 24.1187 39.286C24.8467 39.286 25.5001 39.4587 26.0787 39.804C26.6574 40.14 27.1147 40.602 27.4507 41.19C27.7961 41.778 27.9687 42.4407 27.9687 43.178H27.4227C27.4227 43.9153 27.2641 44.578 26.9467 45.166C26.6387 45.7447 26.2141 46.2067 25.6727 46.552C25.1314 46.888 24.5201 47.056 23.8387 47.056ZM24.1187 45.796C24.5947 45.796 25.0194 45.684 25.3927 45.46C25.7661 45.2267 26.0601 44.914 26.2747 44.522C26.4894 44.1207 26.5967 43.6727 26.5967 43.178C26.5967 42.674 26.4894 42.226 26.2747 41.834C26.0601 41.4327 25.7661 41.12 25.3927 40.896C25.0194 40.6627 24.5947 40.546 24.1187 40.546C23.6521 40.546 23.2274 40.6627 22.8447 40.896C22.4714 41.12 22.1727 41.4327 21.9487 41.834C21.7341 42.226 21.6267 42.674 21.6267 43.178C21.6267 43.6727 21.7341 44.1207 21.9487 44.522C22.1727 44.914 22.4714 45.2267 22.8447 45.46C23.2274 45.684 23.6521 45.796 24.1187 45.796ZM27.2547 47.014C27.0494 47.014 26.8767 46.9487 26.7367 46.818C26.6061 46.678 26.5407 46.5053 26.5407 46.3V44.158L26.8067 42.674L27.9687 43.178V46.3C27.9687 46.5053 27.8987 46.678 27.7587 46.818C27.6281 46.9487 27.4601 47.014 27.2547 47.014ZM33.566 47.056C32.838 47.056 32.18 46.888 31.592 46.552C31.0133 46.2067 30.5513 45.74 30.206 45.152C29.87 44.564 29.702 43.9013 29.702 43.164C29.702 42.4267 29.856 41.7687 30.164 41.19C30.4813 40.602 30.9107 40.14 31.452 39.804C31.9933 39.4587 32.6047 39.286 33.286 39.286C33.8367 39.286 34.3453 39.4027 34.812 39.636C35.2787 39.86 35.6707 40.168 35.988 40.56V36.78C35.988 36.5653 36.0533 36.3927 36.184 36.262C36.324 36.1313 36.4967 36.066 36.702 36.066C36.9167 36.066 37.0893 36.1313 37.22 36.262C37.3507 36.3927 37.416 36.5653 37.416 36.78V43.164C37.416 43.9013 37.2433 44.564 36.898 45.152C36.562 45.74 36.1047 46.2067 35.526 46.552C34.9473 46.888 34.294 47.056 33.566 47.056ZM33.566 45.796C34.042 45.796 34.4667 45.684 34.84 45.46C35.2133 45.2267 35.5073 44.9093 35.722 44.508C35.9367 44.1067 36.044 43.6587 36.044 43.164C36.044 42.66 35.9367 42.212 35.722 41.82C35.5073 41.428 35.2133 41.12 34.84 40.896C34.4667 40.6627 34.042 40.546 33.566 40.546C33.0993 40.546 32.6747 40.6627 32.292 40.896C31.9187 41.12 31.62 41.428 31.396 41.82C31.1813 42.212 31.074 42.66 31.074 43.164C31.074 43.6587 31.1813 44.1067 31.396 44.508C31.62 44.9093 31.9187 45.2267 32.292 45.46C32.6747 45.684 33.0993 45.796 33.566 45.796ZM49.9897 47.014C49.7844 47.014 49.6117 46.9487 49.4717 46.818C49.3411 46.678 49.2757 46.5053 49.2757 46.3V42.296C49.2757 41.708 49.1311 41.274 48.8417 40.994C48.5524 40.7047 48.1744 40.56 47.7077 40.56C47.2224 40.56 46.8211 40.728 46.5037 41.064C46.1957 41.4 46.0417 41.8293 46.0417 42.352H44.8797C44.8797 41.7453 45.0104 41.2133 45.2717 40.756C45.5331 40.2893 45.8971 39.9253 46.3637 39.664C46.8397 39.4027 47.3811 39.272 47.9877 39.272C48.5197 39.272 48.9911 39.3887 49.4017 39.622C49.8124 39.8553 50.1297 40.2007 50.3537 40.658C50.5871 41.106 50.7037 41.652 50.7037 42.296V46.3C50.7037 46.5053 50.6384 46.678 50.5077 46.818C50.3771 46.9487 50.2044 47.014 49.9897 47.014ZM40.6517 47.014C40.4464 47.014 40.2737 46.9487 40.1337 46.818C40.0031 46.678 39.9377 46.5053 39.9377 46.3V40.07C39.9377 39.8553 40.0031 39.6827 40.1337 39.552C40.2737 39.4213 40.4464 39.356 40.6517 39.356C40.8664 39.356 41.0391 39.4213 41.1697 39.552C41.3004 39.6827 41.3657 39.8553 41.3657 40.07V46.3C41.3657 46.5053 41.3004 46.678 41.1697 46.818C41.0391 46.9487 40.8664 47.014 40.6517 47.014ZM45.3277 47.014C45.1224 47.014 44.9497 46.9487 44.8097 46.818C44.6791 46.678 44.6137 46.5053 44.6137 46.3V42.296C44.6137 41.708 44.4691 41.274 44.1797 40.994C43.8904 40.7047 43.5124 40.56 43.0457 40.56C42.5604 40.56 42.1591 40.728 41.8417 41.064C41.5244 41.4 41.3657 41.8293 41.3657 42.352H40.4837C40.4837 41.7453 40.6051 41.2133 40.8477 40.756C41.0904 40.2893 41.4264 39.9253 41.8557 39.664C42.2851 39.4027 42.7751 39.272 43.3257 39.272C43.8577 39.272 44.3291 39.3887 44.7397 39.622C45.1504 39.8553 45.4677 40.2007 45.6917 40.658C45.9251 41.106 46.0417 41.652 46.0417 42.296V46.3C46.0417 46.5053 45.9764 46.678 45.8457 46.818C45.7151 46.9487 45.5424 47.014 45.3277 47.014ZM56.2684 47.056C55.5871 47.056 54.9757 46.888 54.4344 46.552C53.8931 46.2067 53.4637 45.7447 53.1464 45.166C52.8384 44.578 52.6844 43.9153 52.6844 43.178C52.6844 42.4407 52.8524 41.778 53.1884 41.19C53.5337 40.602 53.9957 40.14 54.5744 39.804C55.1624 39.4587 55.8204 39.286 56.5484 39.286C57.2764 39.286 57.9297 39.4587 58.5084 39.804C59.0871 40.14 59.5444 40.602 59.8804 41.19C60.2257 41.778 60.3984 42.4407 60.3984 43.178H59.8524C59.8524 43.9153 59.6937 44.578 59.3764 45.166C59.0684 45.7447 58.6437 46.2067 58.1024 46.552C57.5611 46.888 56.9497 47.056 56.2684 47.056ZM56.5484 45.796C57.0244 45.796 57.4491 45.684 57.8224 45.46C58.1957 45.2267 58.4897 44.914 58.7044 44.522C58.9191 44.1207 59.0264 43.6727 59.0264 43.178C59.0264 42.674 58.9191 42.226 58.7044 41.834C58.4897 41.4327 58.1957 41.12 57.8224 40.896C57.4491 40.6627 57.0244 40.546 56.5484 40.546C56.0817 40.546 55.6571 40.6627 55.2744 40.896C54.9011 41.12 54.6024 41.4327 54.3784 41.834C54.1637 42.226 54.0564 42.674 54.0564 43.178C54.0564 43.6727 54.1637 44.1207 54.3784 44.522C54.6024 44.914 54.9011 45.2267 55.2744 45.46C55.6571 45.684 56.0817 45.796 56.5484 45.796ZM59.6844 47.014C59.4791 47.014 59.3064 46.9487 59.1664 46.818C59.0357 46.678 58.9704 46.5053 58.9704 46.3V44.158L59.2364 42.674L60.3984 43.178V46.3C60.3984 46.5053 60.3284 46.678 60.1884 46.818C60.0577 46.9487 59.8897 47.014 59.6844 47.014ZM68.9917 47.014C68.7863 47.014 68.6137 46.9487 68.4737 46.818C68.343 46.678 68.2777 46.5053 68.2777 46.3V42.856C68.2777 42.324 68.1797 41.89 67.9837 41.554C67.7877 41.218 67.5217 40.9707 67.1857 40.812C66.859 40.644 66.481 40.56 66.0517 40.56C65.6597 40.56 65.305 40.6393 64.9877 40.798C64.6703 40.9567 64.4183 41.1713 64.2317 41.442C64.045 41.7033 63.9517 42.0067 63.9517 42.352H63.0697C63.0697 41.764 63.2097 41.2413 63.4897 40.784C63.779 40.3173 64.171 39.9487 64.6657 39.678C65.1603 39.4073 65.7157 39.272 66.3317 39.272C66.9757 39.272 67.5497 39.412 68.0537 39.692C68.567 39.9627 68.9683 40.364 69.2577 40.896C69.5563 41.428 69.7057 42.0813 69.7057 42.856V46.3C69.7057 46.5053 69.6357 46.678 69.4957 46.818C69.365 46.9487 69.197 47.014 68.9917 47.014ZM63.2377 47.014C63.0323 47.014 62.8597 46.9487 62.7197 46.818C62.589 46.678 62.5237 46.5053 62.5237 46.3V40.056C62.5237 39.8413 62.589 39.6687 62.7197 39.538C62.8597 39.4073 63.0323 39.342 63.2377 39.342C63.4523 39.342 63.625 39.4073 63.7557 39.538C63.8863 39.6687 63.9517 39.8413 63.9517 40.056V46.3C63.9517 46.5053 63.8863 46.678 63.7557 46.818C63.625 46.9487 63.4523 47.014 63.2377 47.014ZM75.5386 47.056C74.792 47.056 74.1246 46.888 73.5366 46.552C72.958 46.2067 72.5006 45.7447 72.1646 45.166C71.838 44.578 71.6746 43.9153 71.6746 43.178C71.6746 42.422 71.838 41.75 72.1646 41.162C72.4913 40.574 72.9393 40.1167 73.5086 39.79C74.078 39.454 74.7313 39.286 75.4686 39.286C76.0193 39.286 76.5233 39.3933 76.9806 39.608C77.438 39.8133 77.8486 40.126 78.2126 40.546C78.3433 40.6953 78.39 40.8493 78.3526 41.008C78.3153 41.1667 78.2126 41.3067 78.0446 41.428C77.914 41.5213 77.7693 41.554 77.6106 41.526C77.452 41.4887 77.3073 41.4047 77.1766 41.274C76.7193 40.7887 76.15 40.546 75.4686 40.546C74.9926 40.546 74.5726 40.658 74.2086 40.882C73.8446 41.0967 73.56 41.4 73.3546 41.792C73.1493 42.184 73.0466 42.646 73.0466 43.178C73.0466 43.682 73.1493 44.13 73.3546 44.522C73.5693 44.914 73.8633 45.2267 74.2366 45.46C74.61 45.684 75.044 45.796 75.5386 45.796C75.8653 45.796 76.15 45.7587 76.3926 45.684C76.6446 45.6 76.8733 45.474 77.0786 45.306C77.228 45.1847 77.382 45.1193 77.5406 45.11C77.6993 45.0913 77.8393 45.1333 77.9606 45.236C78.1193 45.3667 78.208 45.516 78.2266 45.684C78.2453 45.8427 78.1893 45.9873 78.0586 46.118C77.3866 46.7433 76.5466 47.056 75.5386 47.056ZM81.1888 44.214C80.9835 44.214 80.8108 44.1487 80.6708 44.018C80.5402 43.878 80.4748 43.7053 80.4748 43.5V36.78C80.4748 36.5653 80.5402 36.3927 80.6708 36.262C80.8108 36.1313 80.9835 36.066 81.1888 36.066C81.4035 36.066 81.5762 36.1313 81.7068 36.262C81.8375 36.3927 81.9028 36.5653 81.9028 36.78V43.5C81.9028 43.7053 81.8375 43.878 81.7068 44.018C81.5762 44.1487 81.4035 44.214 81.1888 44.214ZM86.9428 47.014C86.7375 47.014 86.5648 46.9487 86.4248 46.818C86.2942 46.678 86.2288 46.5053 86.2288 46.3V42.856C86.2288 42.324 86.1308 41.89 85.9348 41.554C85.7388 41.218 85.4728 40.9707 85.1368 40.812C84.8102 40.644 84.4322 40.56 84.0028 40.56C83.6108 40.56 83.2562 40.6393 82.9388 40.798C82.6215 40.9567 82.3695 41.1713 82.1828 41.442C81.9962 41.7033 81.9028 42.0067 81.9028 42.352H81.0208C81.0208 41.764 81.1608 41.2413 81.4408 40.784C81.7302 40.3173 82.1222 39.9487 82.6168 39.678C83.1115 39.4073 83.6668 39.272 84.2828 39.272C84.9268 39.272 85.5008 39.412 86.0048 39.692C86.5182 39.9627 86.9195 40.364 87.2088 40.896C87.5075 41.428 87.6568 42.0813 87.6568 42.856V46.3C87.6568 46.5053 87.5868 46.678 87.4468 46.818C87.3162 46.9487 87.1482 47.014 86.9428 47.014ZM81.1888 47.014C80.9835 47.014 80.8108 46.9487 80.6708 46.818C80.5402 46.678 80.4748 46.5053 80.4748 46.3V40.056C80.4748 39.8413 80.5402 39.6687 80.6708 39.538C80.8108 39.4073 80.9835 39.342 81.1888 39.342C81.4035 39.342 81.5762 39.4073 81.7068 39.538C81.8375 39.6687 81.9028 39.8413 81.9028 40.056V46.3C81.9028 46.5053 81.8375 46.678 81.7068 46.818C81.5762 46.9487 81.4035 47.014 81.1888 47.014Z" fill="black"/>
<path d="M49.1594 10.5002C46.8287 14.5868 38.017 33.1362 38.2085 33.5832C38.3043 33.9024 38.6874 34.0621 39.1025 33.9982C39.6771 33.9344 40.603 32.0507 44.945 22.2492C47.7865 15.8319 50.2129 10.2767 50.3407 9.86164C50.7238 8.64843 49.9895 9.06348 49.1594 10.5002Z" fill="#FFD64B"/>
<path d="M34.505 19.0884C32.781 20.5251 31.3762 21.8661 31.3762 22.0895C31.3762 22.345 31.8551 22.8558 32.4298 23.2389C32.9726 23.622 34.4093 24.7075 35.5905 25.6653C37.9212 27.5171 38.5278 27.7086 39.0386 26.687C39.3579 26.1442 39.2302 25.8888 38.1766 24.931C37.5061 24.2925 36.2929 23.3666 35.4628 22.8239C33.7388 21.7064 33.7388 21.5468 35.846 19.5354C36.5803 18.833 37.4742 17.8752 37.8254 17.3644C38.9748 15.7681 37.6977 16.4066 34.505 19.0884Z" fill="#524ABD"/>
<path d="M51.8093 17.3325C52.2243 17.8433 53.3098 19.0246 54.2038 19.9505C55.7362 21.5788 55.7682 21.6745 55.1616 22.0896C51.5538 24.6756 50.5322 25.6334 50.596 26.3997C50.7557 27.7725 51.905 27.6129 53.7249 25.9846C54.6188 25.1865 55.9917 24.1329 56.7579 23.6221C57.6838 23.0474 58.1946 22.5046 58.1946 22.0896C58.1946 21.6745 57.1729 20.6529 55.1616 19.0565C51.905 16.5024 50.3726 15.7042 51.8093 17.3325Z" fill="#524ABD"/>
</svg>
